<?xml version="1.0" encoding="UTF-8"?>
<svg id="Layer_1" data-name="Layer 1" xmlns="http://www.w3.org/2000/svg" viewBox="0 0 99.87 42.86">
  <defs>
     <style>
      .cls-1 {
        fill: black;
        stroke-width: 0px;
      }
      .text-shadow {
        fill: black; /* Set the color of the shadow */
        filter: drop-shadow(7px 7px 7px rgba(0, 0, 0, 1));
      }
    </style>
  </defs>
  <path class="cls-1" d="m10.96,13.04v29.21H0V13.04h10.96ZM5.51,0c1.48,0,2.77.52,3.85,1.57,1.08,1.04,1.63,2.28,1.63,3.71,0,1.52-.51,2.77-1.54,3.75-1.03.98-2.34,1.46-3.94,1.46s-2.92-.49-3.94-1.46C.54,8.05.03,6.8.03,5.27.03,3.85.57,2.61,1.66,1.57c1.08-1.04,2.37-1.57,3.85-1.57Z"/>
  <path class="cls-1" d="m31.26,12.42c4.14,0,7.69,1.49,10.65,4.47,2.96,2.98,4.44,6.55,4.44,10.71s-1.5,7.81-4.5,10.78c-3,2.97-6.62,4.45-10.85,4.45s-7.86-1.49-10.87-4.47c-3.01-2.98-4.51-6.57-4.51-10.77s1.5-7.88,4.51-10.8c3.01-2.92,6.72-4.38,11.13-4.38Zm-.29,10.81c-1.17,0-2.17.42-2.99,1.27s-1.23,1.89-1.23,3.12.41,2.25,1.25,3.11c.83.86,1.82,1.29,2.97,1.29s2.17-.43,3-1.29c.83-.86,1.25-1.89,1.25-3.11s-.41-2.27-1.23-3.12-1.83-1.27-3.02-1.27Z"/>
  <path class="cls-1" d="m60.67,2.26v11.19h4.92v11.57h-4.92c0,2.33.37,3.93,1.1,4.8s2.07,1.32,4.03,1.32v11.51c-.57.02-.99.03-1.26.03-2.48,0-4.82-.58-7.02-1.73s-3.96-2.71-5.29-4.69c-1.68-2.52-2.52-5.86-2.52-10.02V2.26h10.96Z"/>
  <path class="cls-1" d="m87.22,31.29v11.34c-.9.16-1.72.23-2.46.23-4.39,0-8.06-1.45-10.99-4.34s-4.39-6.51-4.39-10.87,1.48-7.83,4.44-10.78c2.96-2.95,6.56-4.42,10.8-4.42,4.73,0,8.45,1.38,11.18,4.15,2.72,2.76,4.09,6.54,4.09,11.32v14.33h-10.96v-13.54c0-1.54-.38-2.77-1.13-3.69-.75-.92-1.76-1.38-3.03-1.38-1.15,0-2.15.42-2.99,1.26-.84.84-1.26,1.84-1.26,2.99,0,1.21.38,2.21,1.14,2.99.76.78,1.73,1.17,2.9,1.17.96,0,1.85-.25,2.67-.76Z"/>
</svg>